<svg xmlns="http://www.w3.org/2000/svg" viewBox="0 0 106.96 64.87"><defs><style>.cls-1,.cls-2{fill:#fff;}.cls-2{font-size:31.65px;font-family:Helvetica;letter-spacing:0.03em;}</style></defs><g id="Layer_2" data-name="Layer 2"><g id="Layer_1-2" data-name="Layer 1"><rect class="cls-1" y="61.05" width="106.96" height="3.82"/><path class="cls-1" d="M107,61.05H0V35.2H107ZM22.53,59.76h2.53V53.6a6.43,6.43,0,0,0,1.51,1.16,6.22,6.22,0,0,0,2.87.59,6.8,6.8,0,0,0,3.82-1.07c1.72-1.12,2.58-3,2.58-5.62a5.66,5.66,0,0,0-1.79-4.49,6.38,6.38,0,0,0-4.36-1.57,6.41,6.41,0,0,0-3,.67A5.87,5.87,0,0,0,25,44.55V43H22.53Zm6.57-6.17a3.71,3.71,0,0,1-3.61-1.87A5,5,0,0,1,25,49.34a6.79,6.79,0,0,1,.53-2.86,3.61,3.61,0,0,1,3.61-2.1,3.65,3.65,0,0,1,3.61,2,5.44,5.44,0,0,1,.53,2.48,4.87,4.87,0,0,1-1.18,3.55A4,4,0,0,1,29.1,53.59ZM43.16,55h2.53V38.41H43.16Zm10.6-12.06v8.2a4.35,4.35,0,0,0,.62,2.46c.77,1.15,2.2,1.73,4.31,1.73a6.1,6.1,0,0,0,3.45-1,4.42,4.42,0,0,0,1.2-1.16l0,1.78h2.39V42.89H63.18v5.92a6.24,6.24,0,0,1-.51,2.78,3.53,3.53,0,0,1-3.51,1.9,2.62,2.62,0,0,1-2.45-1.09,2.82,2.82,0,0,1-.36-1.5v-8Zm19.48,8.28a4.16,4.16,0,0,0,1.52,3q1.41,1.22,4.82,1.22a7.78,7.78,0,0,0,4.71-1.17,3.42,3.42,0,0,0,1.54-2.78A2.57,2.57,0,0,0,84.36,49a15.55,15.55,0,0,0-3.73-1l-1.71-.33a6.85,6.85,0,0,1-1.69-.49,1.42,1.42,0,0,1-1-1.26A1.31,1.31,0,0,1,77,44.76a4.58,4.58,0,0,1,2.23-.44,4.69,4.69,0,0,1,3.1.8,2.08,2.08,0,0,1,.62,1.24h2.39a3,3,0,0,0-.93-2.19q-1.53-1.59-5-1.59a7.42,7.42,0,0,0-4.2,1.05,3.22,3.22,0,0,0-1.56,2.77,2.52,2.52,0,0,0,1.66,2.28,11.73,11.73,0,0,0,2.89.85l2,.41a13.51,13.51,0,0,1,2.21.57,1.29,1.29,0,0,1,.87,1.19,1.61,1.61,0,0,1-1.09,1.51,6.08,6.08,0,0,1-2.53.49,4.72,4.72,0,0,1-3.39-1,2.61,2.61,0,0,1-.65-1.55Z"/><text class="cls-2" transform="translate(14.64 31.44) scale(1.25 1)">Life</text><path class="cls-1" d="M90.07,10.44v5.62H85.26V10.45H79.64V5.62h5.6V0h4.84V5.61h5.61v4.83Z"/></g></g></svg>